<svg viewBox="0 0 200 200" xmlns="http://www.w3.org/2000/svg">
  <defs>
    <linearGradient id="trendUp" x1="0%" y1="100%" x2="0%" y2="0%">
      <stop offset="0%" style="stop-color:#00D084;stop-opacity:0.3" />
      <stop offset="100%" style="stop-color:#00D084;stop-opacity:1" />
    </linearGradient>
  </defs>

  <!-- Background circle -->
  <circle cx="100" cy="100" r="95" fill="none" stroke="#00A8E8" stroke-width="1.5" opacity="0.6"/>

  <!-- Trend line chart area -->
  <path d="M 40 140 L 60 120 L 80 95 L 100 110 L 120 75 L 140 85 L 160 50"
        fill="url(#trendUp)" opacity="0.4" stroke="none"/>

  <!-- Trend line -->
  <polyline points="40,140 60,120 80,95 100,110 120,75 140,85 160,50"
            stroke="#00D084" stroke-width="4" fill="none" stroke-linecap="round" stroke-linejoin="round"/>

  <!-- Upward arrow indicator -->
  <g transform="translate(150, 45)">
    <path d="M 0 15 L 0 0 L -8 8 M 0 0 L 8 8" stroke="#00D084" stroke-width="2.5" fill="none" stroke-linecap="round" stroke-linejoin="round"/>
  </g>

  <!-- Euro symbol -->
  <g transform="translate(100, 145)">
    <circle cx="0" cy="0" r="16" fill="#FFB703" opacity="0.15"/>
    <text x="0" y="5" font-size="20" font-weight="bold" fill="#FFB703" text-anchor="middle" font-family="Arial, sans-serif">€</text>
  </g>

  <!-- Data points on line -->
  <circle cx="40" cy="140" r="2.5" fill="#00D084" opacity="0.7"/>
  <circle cx="60" cy="120" r="2.5" fill="#00D084" opacity="0.8"/>
  <circle cx="80" cy="95" r="2.5" fill="#00D084" opacity="0.8"/>
  <circle cx="100" cy="110" r="2.5" fill="#00D084" opacity="0.8"/>
  <circle cx="120" cy="75" r="2.5" fill="#00D084" opacity="0.8"/>
  <circle cx="140" cy="85" r="2.5" fill="#00D084" opacity="0.8"/>
  <circle cx="160" cy="50" r="2.5" fill="#00D084"/>
</svg>