<svg viewBox="0 0 200 200" xmlns="http://www.w3.org/2000/svg">
  <!-- Background circle -->
  <circle cx="100" cy="100" r="95" fill="none" stroke="#FF6B6B" stroke-width="1.5" opacity="0.6"/>

  <!-- Price chart with maximum point -->
  <g transform="translate(100, 95) scale(1.05)">
    <!-- Chart area -->
    <rect x="-35" y="-25" width="70" height="50" rx="2" fill="#FF6B6B" opacity="0.05" stroke="none"/>

    <!-- Price line with high point -->
    <polyline points="-30,10 -15,5 0,-8 15,-5 30,8" stroke="#FF6B6B" stroke-width="2.5" fill="none" stroke-linecap="round" stroke-linejoin="round"/>

    <!-- Maximum point indicator -->
    <circle cx="0" cy="-8" r="4" fill="#FF6B6B"/>
    <circle cx="0" cy="-8" r="2.5" fill="white"/>

    <!-- Arrow pointing up to maximum -->
    <path d="M 0 -3 L 0 -6 L -3 -3 M 0 -6 L 3 -3" stroke="#FF6B6B" stroke-width="1.5" fill="none" stroke-linecap="round" stroke-linejoin="round"/>

    <!-- Value fill beneath -->
    <path d="M -30,10 L -15,5 L 0,-8 L 15,-5 L 30,8 L 30,20 L -30,20 Z" fill="#FF6B6B" opacity="0.08"/>
  </g>

  <!-- Maximum indicator -->
  <g transform="translate(145, 140) scale(1.05)">
    <circle cx="0" cy="0" r="14" fill="#FF6B6B" opacity="0.15"/>
    <text x="0" y="4" font-size="14" font-weight="bold" fill="#FF6B6B" text-anchor="middle" font-family="Arial, sans-serif">€</text>
    <text x="0" y="18" font-size="8" font-weight="600" fill="#FF6B6B" text-anchor="middle" font-family="Arial, sans-serif">MAX</text>
  </g>
</svg>